<svg xmlns="http://www.w3.org/2000/svg" width="36" height="36" viewBox="0 0 36 36">
  <g id="Group_62257" data-name="Group 62257" transform="translate(-1157 -52)">
    <g id="Rectangle_16918" data-name="Rectangle 16918" transform="translate(1157 52)" fill="#fff" stroke="#707070" stroke-width="1" opacity="0">
      <rect width="36" height="36" stroke="none"/>
      <rect x="0.5" y="0.5" width="35" height="35" fill="none"/>
    </g>
    <path id="icons8_english_to_arabic" d="M5.667,3A2.666,2.666,0,0,0,3,5.667V15a2.666,2.666,0,0,0,2.667,2.667h6.667v6.667A2.666,2.666,0,0,0,15,27h9.333A2.666,2.666,0,0,0,27,24.333V15a2.666,2.666,0,0,0-2.667-2.667H17.667V5.667A2.666,2.666,0,0,0,15,3Zm4.664,2.667a1.177,1.177,0,0,1,1.122.82l2,6.349a2.652,2.652,0,0,0-1.1,2.013.918.918,0,0,1-.414-.547l-.318-1.214H9.047L8.729,14.3a.935.935,0,1,1-1.8-.516l2.279-7.3A1.172,1.172,0,0,1,10.331,5.667Zm0,2.526-.872,3.326H11.2ZM19.284,15a4.233,4.233,0,0,1,1.878.4.428.428,0,0,1-.292.8,4.757,4.757,0,0,0-1.185-.169c-.247,0-.948.226-.948.792,0,.709,1.079.911,1.388.911a8.2,8.2,0,0,0,1.794-.24l-.576,2.172a1.9,1.9,0,0,0-2.115-.31,1.828,1.828,0,0,0-.911,2.023c.553,1.205,2.22,1.6,3.445,1.734a.428.428,0,0,1,.107.826,5.985,5.985,0,0,1-2.185.391c-1.549,0-3.516-.878-3.516-2.641a3.26,3.26,0,0,1,1.76-2.641,3.06,3.06,0,0,1-.862-1.94A2.4,2.4,0,0,1,19.284,15Z" transform="translate(1160 55)" fill="#5d718d"/>
  </g>
</svg>
