<svg width="41" height="33" viewBox="0 0 41 33" fill="none" xmlns="http://www.w3.org/2000/svg">
<g clip-path="url(#clip0_1_76)">
<path opacity="0.15" fill-rule="evenodd" clip-rule="evenodd" d="M3.6051 1.70068C2.50053 1.70068 1.6051 2.59611 1.6051 3.70068V28.7007C1.6051 29.8053 2.50053 30.7007 3.6051 30.7007H37.6051C38.7097 30.7007 39.6051 29.8053 39.6051 28.7007V3.70068C39.6051 2.59611 38.7097 1.70068 37.6051 1.70068H3.6051ZM36.6051 9.70068H4.6051V28.7007H36.6051V9.70068Z" fill="url(#paint0_linear_1_76)"/>
<path d="M38.2223 1.07568H2.98791C1.67413 1.07568 0.605103 2.14471 0.605103 3.45849V29.9429C0.605103 31.2567 1.67413 32.3257 2.98791 32.3257H38.2223C39.5361 32.3257 40.6051 31.2567 40.6051 29.9429V3.45849C40.6051 2.14471 39.5361 1.07568 38.2223 1.07568ZM39.0426 29.9429C39.0426 30.3952 38.6746 30.7632 38.2223 30.7632H2.98791C2.53564 30.7632 2.1676 30.3952 2.1676 29.9429V3.45849C2.1676 3.00622 2.53564 2.63818 2.98791 2.63818H38.2223C38.6746 2.63818 39.0426 3.00622 39.0426 3.45849V29.9429Z" fill="url(#paint1_linear_1_76)"/>
<path d="M15.527 6.49219H35.6832C36.1147 6.49219 36.4645 6.14246 36.4645 5.71094C36.4645 5.27973 36.1147 4.92969 35.6832 4.92969H15.527C15.0955 4.92969 14.7457 5.27973 14.7457 5.71094C14.7457 6.14246 15.0955 6.49219 15.527 6.49219Z" fill="url(#paint2_linear_1_76)"/>
<path d="M4.59742 6.01002C4.61695 6.05702 4.64106 6.10219 4.66914 6.1443C4.69721 6.18733 4.73017 6.22731 4.76618 6.26301C4.91145 6.40919 5.11286 6.4922 5.31824 6.4922C5.36982 6.4922 5.42078 6.48732 5.47144 6.47725C5.52149 6.46718 5.57063 6.45222 5.61762 6.43269C5.66462 6.41316 5.70979 6.38905 5.7519 6.36097C5.79493 6.33198 5.83491 6.29902 5.87061 6.26332C5.90754 6.22731 5.93958 6.18733 5.96827 6.1446C5.99665 6.10219 6.02076 6.05702 6.04029 6.01002C6.05982 5.96242 6.07478 5.91328 6.08485 5.86384C6.09492 5.81318 6.09949 5.76161 6.09949 5.71095C6.09949 5.65999 6.09492 5.60841 6.08485 5.55867C6.07478 5.50862 6.05982 5.45918 6.04029 5.41249C6.02076 5.36488 5.99665 5.31941 5.96827 5.2773C5.93958 5.23427 5.90754 5.19459 5.87061 5.15858C5.83491 5.12257 5.79493 5.08992 5.7519 5.06154C5.70979 5.03346 5.66462 5.00935 5.61762 4.98982C5.57063 4.97029 5.52149 4.95533 5.47144 4.94526C5.37074 4.92482 5.26698 4.92482 5.16596 4.94526C5.11591 4.95533 5.06678 4.97029 5.02009 4.98982C4.97218 5.00935 4.92701 5.03346 4.8849 5.06154C4.84187 5.08992 4.80189 5.12257 4.76618 5.15858C4.73017 5.19459 4.69721 5.23427 4.66914 5.2773C4.64106 5.31941 4.61695 5.36488 4.59742 5.41249C4.57789 5.45918 4.56293 5.50862 4.55286 5.55867C4.54249 5.60841 4.53699 5.65999 4.53699 5.71095C4.53699 5.76161 4.54249 5.81318 4.55286 5.86384C4.56293 5.91328 4.57789 5.96242 4.59742 6.01002Z" fill="url(#paint3_linear_1_76)"/>
<path d="M7.72242 6.01002C7.74195 6.05702 7.76606 6.10219 7.79414 6.1443C7.82221 6.18733 7.85517 6.22731 7.89118 6.26301C8.03645 6.40919 8.23786 6.4922 8.44324 6.4922C8.49482 6.4922 8.54578 6.48732 8.59644 6.47725C8.64649 6.46718 8.69563 6.45222 8.74262 6.43269C8.78962 6.41316 8.83479 6.38905 8.8769 6.36097C8.91993 6.33198 8.95991 6.29902 8.99653 6.26332C9.03254 6.22731 9.06458 6.18733 9.09327 6.1446C9.12165 6.10219 9.14576 6.05702 9.16529 6.01002C9.18482 5.96242 9.19978 5.91328 9.20985 5.86384C9.21992 5.81318 9.22449 5.76161 9.22449 5.71095C9.22449 5.65999 9.21992 5.60841 9.20985 5.55867C9.19978 5.50862 9.18482 5.45918 9.16529 5.41249C9.14576 5.36488 9.12165 5.31941 9.09327 5.2773C9.06458 5.23427 9.03254 5.19459 8.99653 5.15858C8.95991 5.12257 8.91993 5.08992 8.8769 5.06154C8.83479 5.03346 8.78962 5.00935 8.74262 4.98982C8.69563 4.97029 8.64649 4.95533 8.59644 4.94526C8.49574 4.92482 8.39198 4.92482 8.29096 4.94526C8.24091 4.95533 8.19178 4.97029 8.14509 4.98982C8.09718 5.00935 8.05201 5.03346 8.0099 5.06154C7.96687 5.08992 7.92689 5.12257 7.89118 5.15858C7.85517 5.19459 7.82221 5.23427 7.79414 5.2773C7.76606 5.31941 7.74195 5.36488 7.72242 5.41249C7.70289 5.45918 7.68793 5.50862 7.67786 5.55867C7.66749 5.60841 7.66199 5.65999 7.66199 5.71095C7.66199 5.76161 7.66749 5.81318 7.67786 5.86384C7.68793 5.91328 7.70289 5.96242 7.72242 6.01002Z" fill="url(#paint4_linear_1_76)"/>
<path d="M10.8474 6.01002C10.8669 6.05702 10.891 6.10219 10.9191 6.1443C10.9472 6.18733 10.9802 6.22731 11.0162 6.26301C11.0519 6.29902 11.0919 6.33198 11.1349 6.36067C11.177 6.38905 11.2222 6.41316 11.2701 6.43269C11.3168 6.45222 11.3659 6.46718 11.416 6.47725C11.466 6.48732 11.5176 6.4919 11.5682 6.4919C11.6198 6.4919 11.6708 6.48732 11.7214 6.47725C11.7715 6.46718 11.8206 6.45222 11.8676 6.43269C11.9146 6.41316 11.9598 6.38905 12.0028 6.36067C12.0449 6.33198 12.0849 6.29902 12.1215 6.26301C12.1575 6.22731 12.1896 6.18733 12.2183 6.1443C12.2466 6.10219 12.2707 6.05702 12.2903 6.01002C12.3098 5.96242 12.3248 5.91328 12.3348 5.86384C12.3449 5.81318 12.3495 5.76161 12.3495 5.71065C12.3495 5.65999 12.3449 5.60841 12.3348 5.55836C12.3248 5.50831 12.3098 5.45918 12.2903 5.41249C12.2707 5.36458 12.2466 5.31941 12.2183 5.2773C12.1896 5.23427 12.1575 5.19429 12.1215 5.15858C12.0849 5.12257 12.0449 5.08961 12.0028 5.06154C11.9598 5.03346 11.9146 5.00935 11.8676 4.98982C11.8206 4.97029 11.7715 4.95533 11.7214 4.94526C11.6207 4.92482 11.517 4.92482 11.416 4.94526C11.3659 4.95533 11.3168 4.97029 11.2701 4.98982C11.2222 5.00935 11.177 5.03346 11.1349 5.06154C11.0919 5.08961 11.0519 5.12257 11.0162 5.15858C10.9802 5.19429 10.9472 5.23427 10.9191 5.2773C10.891 5.31941 10.8669 5.36458 10.8474 5.41249C10.8279 5.45918 10.8129 5.50831 10.8029 5.55836C10.7925 5.60841 10.787 5.65999 10.787 5.71065C10.787 5.76161 10.7925 5.81318 10.8029 5.86384C10.8129 5.91328 10.8279 5.96242 10.8474 6.01002Z" fill="url(#paint5_linear_1_76)"/>
<path d="M23.3205 14.4398C22.9491 14.22 22.47 14.3433 22.2503 14.7147L17.615 22.5532C17.3952 22.9246 17.5182 23.4037 17.8896 23.6231C18.0144 23.697 18.1515 23.7324 18.2867 23.7324C18.5537 23.7324 18.814 23.595 18.9599 23.3485L23.5952 15.51C23.8149 15.1386 23.6919 14.6595 23.3205 14.4398Z" fill="url(#paint6_linear_1_76)"/>
<path d="M13.582 16.7359V15.947C13.582 15.5103 13.9372 15.1548 14.3739 15.1548H14.3849C14.8164 15.1548 15.1661 14.805 15.1661 14.3735C15.1661 13.9423 14.8164 13.5923 14.3849 13.5923H14.3739C13.0757 13.5923 12.0195 14.6488 12.0195 15.947V16.7359C12.0195 17.02 11.9029 17.2971 11.6997 17.4958L10.6874 18.4861C10.5382 18.632 10.4536 18.8315 10.4524 19.0403C10.4515 19.249 10.5339 19.4495 10.6816 19.5972L11.7131 20.6284C11.9121 20.8271 12.0225 21.0914 12.0247 21.3727L12.0302 22.1915C12.0393 23.4809 13.0955 24.5301 14.3849 24.5301C14.8164 24.5301 15.1661 24.18 15.1661 23.7488C15.1661 23.3173 14.8164 22.9676 14.3849 22.9676C13.9509 22.9676 13.5957 22.6145 13.5927 22.1808L13.5872 21.3621C13.5823 20.6672 13.3088 20.0141 12.8178 19.5234L12.3448 19.0507L12.7925 18.6127C13.2942 18.1217 13.582 17.4378 13.582 16.7359Z" fill="url(#paint7_linear_1_76)"/>
<path d="M27.6281 21.3864V22.1752C27.6281 22.612 27.2729 22.9675 26.8362 22.9675H26.8252C26.3937 22.9675 26.0439 23.3172 26.0439 23.7487C26.0439 24.1799 26.3937 24.53 26.8252 24.53H26.8362C28.1344 24.53 29.1906 23.4735 29.1906 22.1752V21.3864C29.1906 21.1023 29.3072 20.8252 29.5104 20.6265L30.5227 19.6362C30.6719 19.4903 30.7565 19.2907 30.7574 19.082C30.7586 18.8732 30.6762 18.6727 30.5285 18.525L29.497 17.4939C29.298 17.2952 29.1872 17.0306 29.1854 16.7495L29.1796 15.9307C29.1708 14.6414 28.1146 13.5925 26.8252 13.5925C26.3937 13.5925 26.0439 13.9422 26.0439 14.3737C26.0439 14.8049 26.3937 15.155 26.8252 15.155C27.2588 15.155 27.6144 15.5078 27.6171 15.9414L27.6229 16.7602C27.6278 17.4548 27.9009 18.1079 28.3923 18.5989L28.8653 19.0716L28.4176 19.5095C27.9159 20.0003 27.6281 20.6845 27.6281 21.3864Z" fill="url(#paint8_linear_1_76)"/>
<path d="M36.6494 8.83594H4.56079C4.12927 8.83594 3.77954 9.18598 3.77954 9.61719V28.3672C3.77954 28.7987 4.12927 29.1484 4.56079 29.1484H13.8604C14.2919 29.1484 14.6417 28.7987 14.6417 28.3672C14.6417 27.936 14.2919 27.5859 13.8604 27.5859H5.34204V10.3984H35.8682V27.5859H20.1363C19.7048 27.5859 19.3551 27.936 19.3551 28.3672C19.3551 28.7987 19.7048 29.1484 20.1363 29.1484H36.6494C37.0809 29.1484 37.4307 28.7987 37.4307 28.3672V9.61719C37.4307 9.18598 37.0809 8.83594 36.6494 8.83594Z" fill="url(#paint9_linear_1_76)"/>
</g>
<defs>
<linearGradient id="paint0_linear_1_76" x1="3.75843" y1="1.70068" x2="27.2937" y2="35.7549" gradientUnits="userSpaceOnUse">
<stop offset="0.259336" stop-color="#FFDB6E"/>
<stop offset="1" stop-color="#FFBC5E"/>
</linearGradient>
<linearGradient id="paint1_linear_1_76" x1="2.87177" y1="1.07568" x2="28.4378" y2="37.2117" gradientUnits="userSpaceOnUse">
<stop offset="0.259336" stop-color="#FFDB6E"/>
<stop offset="1" stop-color="#FFBC5E"/>
</linearGradient>
<linearGradient id="paint2_linear_1_76" x1="15.9765" y1="4.92969" x2="16.1523" y2="7.62943" gradientUnits="userSpaceOnUse">
<stop offset="0.259336" stop-color="#FFDB6E"/>
<stop offset="1" stop-color="#FFBC5E"/>
</linearGradient>
<linearGradient id="paint3_linear_1_76" x1="4.62554" y1="4.92993" x2="5.97428" y2="6.41949" gradientUnits="userSpaceOnUse">
<stop offset="0.259336" stop-color="#FFDB6E"/>
<stop offset="1" stop-color="#FFBC5E"/>
</linearGradient>
<linearGradient id="paint4_linear_1_76" x1="7.75054" y1="4.92993" x2="9.09928" y2="6.41949" gradientUnits="userSpaceOnUse">
<stop offset="0.259336" stop-color="#FFDB6E"/>
<stop offset="1" stop-color="#FFBC5E"/>
</linearGradient>
<linearGradient id="paint5_linear_1_76" x1="10.8755" y1="4.92993" x2="12.224" y2="6.41946" gradientUnits="userSpaceOnUse">
<stop offset="0.259336" stop-color="#FFDB6E"/>
<stop offset="1" stop-color="#FFBC5E"/>
</linearGradient>
<linearGradient id="paint6_linear_1_76" x1="17.8572" y1="14.3309" x2="25.6194" y2="19.9818" gradientUnits="userSpaceOnUse">
<stop offset="0.259336" stop-color="#FFDB6E"/>
<stop offset="1" stop-color="#FFBC5E"/>
</linearGradient>
<linearGradient id="paint7_linear_1_76" x1="10.7195" y1="13.5923" x2="18.0836" y2="17.0967" gradientUnits="userSpaceOnUse">
<stop offset="0.259336" stop-color="#FFDB6E"/>
<stop offset="1" stop-color="#FFBC5E"/>
</linearGradient>
<linearGradient id="paint8_linear_1_76" x1="26.311" y1="13.5925" x2="33.6747" y2="17.0966" gradientUnits="userSpaceOnUse">
<stop offset="0.259336" stop-color="#FFDB6E"/>
<stop offset="1" stop-color="#FFBC5E"/>
</linearGradient>
<linearGradient id="paint9_linear_1_76" x1="5.68643" y1="8.83595" x2="20.5203" y2="35.9727" gradientUnits="userSpaceOnUse">
<stop offset="0.259336" stop-color="#FFDB6E"/>
<stop offset="1" stop-color="#FFBC5E"/>
</linearGradient>
<clipPath id="clip0_1_76">
<rect width="40" height="32" fill="white" transform="translate(0.605103 0.700684)"/>
</clipPath>
</defs>
</svg>
