<svg width="19" height="19" viewBox="0 0 19 19" fill="none" xmlns="http://www.w3.org/2000/svg">
<path d="M15.125 3.35669H3.875C2.94302 3.35669 2.1875 4.11221 2.1875 5.04419V15.1692C2.1875 16.1012 2.94302 16.8567 3.875 16.8567H15.125C16.057 16.8567 16.8125 16.1012 16.8125 15.1692V5.04419C16.8125 4.11221 16.057 3.35669 15.125 3.35669Z" stroke="#FFDB70" stroke-width="1.23047" stroke-linejoin="round"/>
<path d="M10.9062 9.54419C11.3722 9.54419 11.75 9.16643 11.75 8.70044C11.75 8.23445 11.3722 7.85669 10.9062 7.85669C10.4403 7.85669 10.0625 8.23445 10.0625 8.70044C10.0625 9.16643 10.4403 9.54419 10.9062 9.54419Z" fill="#FFDB70" stroke="#FFDB70" stroke-width="0.0351562"/>
<path d="M13.7188 9.54419C14.1847 9.54419 14.5625 9.16643 14.5625 8.70044C14.5625 8.23445 14.1847 7.85669 13.7188 7.85669C13.2528 7.85669 12.875 8.23445 12.875 8.70044C12.875 9.16643 13.2528 9.54419 13.7188 9.54419Z" fill="#FFDB70" stroke="#FFDB70" stroke-width="0.0351562"/>
<path d="M10.9062 12.3567C11.3722 12.3567 11.75 11.9789 11.75 11.5129C11.75 11.0469 11.3722 10.6692 10.9062 10.6692C10.4403 10.6692 10.0625 11.0469 10.0625 11.5129C10.0625 11.9789 10.4403 12.3567 10.9062 12.3567Z" fill="#FFDB70" stroke="#FFDB70" stroke-width="0.0351562"/>
<path d="M13.7188 12.3567C14.1847 12.3567 14.5625 11.9789 14.5625 11.5129C14.5625 11.0469 14.1847 10.6692 13.7188 10.6692C13.2528 10.6692 12.875 11.0469 12.875 11.5129C12.875 11.9789 13.2528 12.3567 13.7188 12.3567Z" fill="#FFDB70" stroke="#FFDB70" stroke-width="0.0351562"/>
<path d="M5.28125 12.3567C5.74724 12.3567 6.125 11.9789 6.125 11.5129C6.125 11.0469 5.74724 10.6692 5.28125 10.6692C4.81526 10.6692 4.4375 11.0469 4.4375 11.5129C4.4375 11.9789 4.81526 12.3567 5.28125 12.3567Z" fill="#FFDB70" stroke="#FFDB70" stroke-width="0.0351562"/>
<path d="M8.09375 12.3567C8.55974 12.3567 8.9375 11.9789 8.9375 11.5129C8.9375 11.0469 8.55974 10.6692 8.09375 10.6692C7.62776 10.6692 7.25 11.0469 7.25 11.5129C7.25 11.9789 7.62776 12.3567 8.09375 12.3567Z" fill="#FFDB70" stroke="#FFDB70" stroke-width="0.0351562"/>
<path d="M5.28125 15.1692C5.74724 15.1692 6.125 14.7914 6.125 14.3254C6.125 13.8594 5.74724 13.4817 5.28125 13.4817C4.81526 13.4817 4.4375 13.8594 4.4375 14.3254C4.4375 14.7914 4.81526 15.1692 5.28125 15.1692Z" fill="#FFDB70" stroke="#FFDB70" stroke-width="0.0351562"/>
<path d="M8.09375 15.1692C8.55974 15.1692 8.9375 14.7914 8.9375 14.3254C8.9375 13.8594 8.55974 13.4817 8.09375 13.4817C7.62776 13.4817 7.25 13.8594 7.25 14.3254C7.25 14.7914 7.62776 15.1692 8.09375 15.1692Z" fill="#FFDB70" stroke="#FFDB70" stroke-width="0.0351562"/>
<path d="M10.9062 15.1692C11.3722 15.1692 11.75 14.7914 11.75 14.3254C11.75 13.8594 11.3722 13.4817 10.9062 13.4817C10.4403 13.4817 10.0625 13.8594 10.0625 14.3254C10.0625 14.7914 10.4403 15.1692 10.9062 15.1692Z" fill="#FFDB70" stroke="#FFDB70" stroke-width="0.0351562"/>
<path d="M5 2.23169V3.35669M14 2.23169V3.35669" stroke="#FFDB70" stroke-width="1.23047" stroke-linecap="round" stroke-linejoin="round"/>
<path d="M16.8125 6.16919H2.1875" stroke="#FFDB70" stroke-width="1.23047" stroke-linejoin="round"/>
</svg>
