<svg width="18" height="16" viewBox="0 0 18 16" fill="none" xmlns="http://www.w3.org/2000/svg">
<path d="M8.61002 4.625C9.17252 2.40454 11.297 1.27075 15.9225 1.25C15.9965 1.24973 16.0697 1.26408 16.1381 1.29225C16.2065 1.32042 16.2686 1.36185 16.3209 1.41413C16.3732 1.46642 16.4146 1.52854 16.4428 1.59691C16.4709 1.66529 16.4853 1.73856 16.485 1.8125V11.9375C16.485 12.0867 16.4258 12.2298 16.3203 12.3353C16.2148 12.4407 16.0717 12.5 15.9225 12.5C11.4225 12.5 9.68404 13.4074 8.61002 14.75M8.61002 4.625C8.04752 2.40454 5.92303 1.27075 1.29752 1.25C1.22357 1.24973 1.1503 1.26408 1.08193 1.29225C1.01356 1.32042 0.951439 1.36185 0.899151 1.41413C0.846862 1.46642 0.805439 1.52854 0.77727 1.59691C0.7491 1.66529 0.734741 1.73856 0.73502 1.8125V11.8697C0.73502 12.217 0.950176 12.5 1.29752 12.5C5.79752 12.5 7.54232 13.4141 8.61002 14.75M8.61002 4.625V14.75" stroke="#FFDB70" stroke-width="1.23047" stroke-linecap="round" stroke-linejoin="round"/>
</svg>
