<svg width="24" height="25" viewBox="0 0 24 25" fill="none" xmlns="http://www.w3.org/2000/svg">
<path d="M12 0C5.373 0 0 5.60038 0 12.5078C0 18.3688 3.872 23.2729 9.092 24.63C9.036 24.4611 9 24.2652 9 24.0223V21.8845C8.513 21.8845 7.697 21.8845 7.492 21.8845C6.671 21.8845 5.941 21.5166 5.587 20.8328C5.194 20.073 5.126 18.9108 4.152 18.1999C3.863 17.9633 4.083 17.6934 4.416 17.7298C5.031 17.9112 5.541 18.3511 6.021 19.0036C6.499 19.6571 6.724 19.8051 7.617 19.8051C8.05 19.8051 8.698 19.779 9.308 19.679C9.636 18.8107 10.203 18.0113 10.896 17.634C6.9 17.2056 4.993 15.1334 4.993 12.3202C4.993 11.109 5.488 9.93747 6.329 8.95039C6.053 7.97061 5.706 5.97249 6.435 5.2116C8.233 5.2116 9.32 6.42694 9.581 6.75527C10.477 6.43528 11.461 6.25391 12.495 6.25391C13.531 6.25391 14.519 6.43528 15.417 6.75735C15.675 6.43111 16.763 5.2116 18.565 5.2116C19.297 5.97353 18.946 7.97999 18.667 8.95769C19.503 9.94268 19.995 11.1111 19.995 12.3202C19.995 15.1313 18.091 17.2024 14.101 17.6329C15.199 18.2302 16 19.9083 16 21.1726V24.0223C16 24.1307 15.977 24.2089 15.965 24.3017C20.641 22.5933 24 17.9654 24 12.5078C24 5.60038 18.627 0 12 0Z" fill="#D4D4D4"/>
</svg>
