<svg width="19" height="19" viewBox="0 0 19 19" fill="none" xmlns="http://www.w3.org/2000/svg">
<path d="M16.1154 1.66919H2.97078C2.25254 1.66919 1.625 2.18599 1.625 2.89579V16.0695C1.625 16.7832 2.25254 17.4192 2.97078 17.4192H16.1115C16.8336 17.4192 17.375 16.779 17.375 16.0695V2.89579C17.3792 2.18599 16.8336 1.66919 16.1154 1.66919ZM6.50715 14.7976H4.25082V7.78216H6.50715V14.7976ZM5.45703 6.71552H5.44086C4.71875 6.71552 4.25117 6.17798 4.25117 5.50509C4.25117 4.81989 4.73105 4.29501 5.46934 4.29501C6.20762 4.29501 6.65938 4.81603 6.67555 5.50509C6.6752 6.17798 6.20762 6.71552 5.45703 6.71552ZM14.7534 14.7976H12.4971V10.9617C12.4971 10.0427 12.1687 9.41481 11.3524 9.41481C10.7287 9.41481 10.3596 9.83669 10.1954 10.2477C10.1339 10.3953 10.1173 10.5964 10.1173 10.8017V14.7976H7.86102V7.78216H10.1173V8.75845C10.4457 8.29087 10.9586 7.61798 12.1522 7.61798C13.6333 7.61798 14.7538 8.59427 14.7538 10.6991L14.7534 14.7976Z" fill="#D6D6D6" stroke="#D6D6D6" stroke-width="0.0351562"/>
</svg>
