<svg width="19" height="19" viewBox="0 0 19 19" fill="none" xmlns="http://www.w3.org/2000/svg">
<path d="M9.5 2.23169C6.70508 2.23169 4.4375 4.38993 4.4375 7.0481C4.4375 10.1067 7.8125 14.9537 9.05176 16.6278C9.1032 16.6985 9.17062 16.756 9.24852 16.7956C9.32642 16.8353 9.41259 16.856 9.5 16.856C9.58741 16.856 9.67358 16.8353 9.75148 16.7956C9.82938 16.756 9.8968 16.6985 9.94824 16.6278C11.1875 14.9544 14.5625 10.1092 14.5625 7.0481C14.5625 4.38993 12.2949 2.23169 9.5 2.23169Z" stroke="#FFDB70" stroke-width="1.23047" stroke-linecap="round" stroke-linejoin="round"/>
<path d="M9.5 8.98169C10.432 8.98169 11.1875 8.22617 11.1875 7.29419C11.1875 6.36221 10.432 5.60669 9.5 5.60669C8.56802 5.60669 7.8125 6.36221 7.8125 7.29419C7.8125 8.22617 8.56802 8.98169 9.5 8.98169Z" stroke="#FFDB70" stroke-width="1.23047" stroke-linecap="round" stroke-linejoin="round"/>
</svg>
