<svg width="23" height="40" viewBox="0 0 23 40" fill="none" xmlns="http://www.w3.org/2000/svg">
<path opacity="0.15" fill-rule="evenodd" clip-rule="evenodd" d="M3.5 1C2.39543 1 1.5 1.89543 1.5 3V37C1.5 38.1046 2.39543 39 3.5 39H19.4C20.5046 39 21.4 38.1046 21.4 37V3C21.4 1.89543 20.5046 1 19.4 1H16.1631V2H6.73676V1H3.5Z" fill="url(#paint0_linear_618_62)"/>
<path d="M9.00842 35.6745C8.63489 35.6745 8.33209 35.9773 8.33209 36.3508C8.33209 36.7243 8.63489 37.0271 9.00842 37.0271V35.6745ZM13.9632 37.0271C14.3367 37.0271 14.6395 36.7243 14.6395 36.3508C14.6395 35.9773 14.3367 35.6745 13.9632 35.6745V37.0271ZM0.899902 29.4141C0.899902 29.7876 1.20271 30.0904 1.57623 30.0904C1.94976 30.0904 2.25256 29.7876 2.25256 29.4141H0.899902ZM2.25256 32.387C2.25256 32.0134 1.94976 31.7106 1.57623 31.7106C1.20271 31.7106 0.899902 32.0134 0.899902 32.387H2.25256ZM20.7191 7.61303C20.7191 7.98656 21.0219 8.28936 21.3954 8.28936C21.7689 8.28936 22.0717 7.98656 22.0717 7.61303H20.7191ZM22.0717 10.5859C22.0717 10.2124 21.7689 9.90956 21.3954 9.90956C21.0219 9.90956 20.7191 10.2124 20.7191 10.5859H22.0717ZM18.9799 38.6473H3.99169V40H18.9799V38.6473ZM3.99169 1.35266H7.0265V0H3.99169V1.35266ZM6.35018 1.69206H7.70283V0.676328H6.35018V1.69206ZM7.99269 3.33457H14.979V1.98191H7.99269V3.33457ZM7.0265 1.35266H15.9451V0H7.0265V1.35266ZM15.9451 1.35266H18.9799V0H15.9451V1.35266ZM16.6215 1.69206V0.676328H15.2688V1.69206H16.6215ZM9.00842 37.0271H13.9632V35.6745H9.00842V37.0271ZM2.25256 29.4141V3.09179H0.899902V29.4141H2.25256ZM2.25256 36.9082V32.387H0.899902V36.9082H2.25256ZM20.7191 3.09179V7.61303H22.0717V3.09179H20.7191ZM20.7191 10.5859V36.9082H22.0717V10.5859H20.7191ZM14.979 3.33457C15.8861 3.33457 16.6215 2.5992 16.6215 1.69206H15.2688C15.2688 1.85214 15.1391 1.98191 14.979 1.98191V3.33457ZM3.99169 38.6473C3.0312 38.6473 2.25256 37.8687 2.25256 36.9082H0.899902C0.899902 38.6157 2.28415 40 3.99169 40V38.6473ZM18.9799 40C20.6875 40 22.0717 38.6157 22.0717 36.9082H20.7191C20.7191 37.8687 19.9404 38.6473 18.9799 38.6473V40ZM18.9799 1.35266C19.9404 1.35266 20.7191 2.13129 20.7191 3.09179H22.0717C22.0717 1.38424 20.6875 0 18.9799 0V1.35266ZM6.35018 1.69206C6.35018 2.5992 7.08555 3.33457 7.99269 3.33457V1.98191C7.8326 1.98191 7.70283 1.85214 7.70283 1.69206H6.35018ZM3.99169 0C2.28415 0 0.899902 1.38424 0.899902 3.09179H2.25256C2.25256 2.13129 3.0312 1.35266 3.99169 1.35266V0Z" fill="url(#paint1_linear_618_62)"/>
<defs>
<linearGradient id="paint0_linear_618_62" x1="2.62767" y1="1" x2="31.2018" y2="17.5237" gradientUnits="userSpaceOnUse">
<stop offset="0.259336" stop-color="#FFDB6E"/>
<stop offset="1" stop-color="#FFBC5E"/>
</linearGradient>
<linearGradient id="paint1_linear_618_62" x1="2.09964" y1="8.06736e-07" x2="32.3367" y2="17.6727" gradientUnits="userSpaceOnUse">
<stop offset="0.259336" stop-color="#FFDB6E"/>
<stop offset="1" stop-color="#FFBC5E"/>
</linearGradient>
</defs>
</svg>
