<svg width="19" height="19" viewBox="0 0 19 19" fill="none" xmlns="http://www.w3.org/2000/svg">
<path d="M12.3125 1.10669H6.6875C5.75552 1.10669 5 1.86221 5 2.79419V16.2942C5 17.2262 5.75552 17.9817 6.6875 17.9817H12.3125C13.2445 17.9817 14 17.2262 14 16.2942V2.79419C14 1.86221 13.2445 1.10669 12.3125 1.10669Z" stroke="#FFDB70" stroke-width="1.23047" stroke-linecap="round" stroke-linejoin="round"/>
<path d="M6.6875 1.10669H7.53125C7.60584 1.10669 7.67738 1.13632 7.73012 1.18907C7.78287 1.24181 7.8125 1.31335 7.8125 1.38794C7.8125 1.53712 7.87176 1.6802 7.97725 1.78569C8.08274 1.89118 8.22582 1.95044 8.375 1.95044H10.625C10.7742 1.95044 10.9173 1.89118 11.0227 1.78569C11.1282 1.6802 11.1875 1.53712 11.1875 1.38794C11.1875 1.31335 11.2171 1.24181 11.2699 1.18907C11.3226 1.13632 11.3942 1.10669 11.4688 1.10669H12.3125" stroke="#FFDB70" stroke-width="1.23047" stroke-linecap="round" stroke-linejoin="round"/>
</svg>
