<svg width="17" height="17" viewBox="0 0 17 17" fill="none" xmlns="http://www.w3.org/2000/svg">
<path d="M16.4026 0.652335C16.2876 0.537333 16.1418 0.45803 15.9827 0.423974C15.8237 0.389919 15.6582 0.402562 15.5062 0.460382L1.4426 5.78339H1.43979C1.27763 5.84576 1.13868 5.95666 1.04192 6.10095C0.945152 6.24524 0.895287 6.41589 0.899133 6.58958C0.902979 6.76327 0.960349 6.93154 1.06341 7.07141C1.16647 7.21127 1.31019 7.31592 1.47494 7.37105L1.48936 7.37562L6.31631 9.43683C6.41046 9.46541 6.51046 9.46879 6.60632 9.44665C6.70219 9.4245 6.79057 9.3776 6.86264 9.31062L14.6097 2.09198C14.6328 2.0689 14.6602 2.05059 14.6903 2.0381C14.7205 2.0256 14.7528 2.01917 14.7855 2.01917C14.8181 2.01917 14.8504 2.0256 14.8806 2.0381C14.9107 2.05059 14.9381 2.0689 14.9612 2.09198C14.9843 2.11507 15.0026 2.14247 15.0151 2.17263C15.0276 2.20279 15.034 2.23512 15.034 2.26776C15.034 2.30041 15.0276 2.33274 15.0151 2.3629C15.0026 2.39306 14.9843 2.42046 14.9612 2.44355L7.74225 10.1871C7.67527 10.2591 7.62836 10.3475 7.60622 10.4434C7.58407 10.5392 7.58746 10.6392 7.61604 10.7334L9.67795 15.5632C9.68006 15.5702 9.68217 15.5765 9.68463 15.5832C9.79713 15.9091 10.0819 16.139 10.4261 16.1545H10.4612C10.635 16.1555 10.805 16.1042 10.9492 16.0072C11.0934 15.9103 11.2051 15.7722 11.2698 15.611L16.5921 1.55128C16.6508 1.39915 16.6641 1.23329 16.6305 1.07376C16.5968 0.914222 16.5177 0.767847 16.4026 0.652335Z" fill="#FFDB70" stroke="#FFDB70" stroke-width="0.0351562"/>
</svg>
