<svg width="19" height="19" viewBox="0 0 19 19" fill="none" xmlns="http://www.w3.org/2000/svg">
<path fill-rule="evenodd" clip-rule="evenodd" d="M15.0804 3.9579C14.3523 3.22948 13.4873 2.65227 12.5353 2.25948C11.5833 1.8667 10.5629 1.66609 9.53305 1.66923C5.21094 1.66923 1.6925 5.17008 1.69074 9.47391C1.68883 10.8443 2.05007 12.1908 2.7377 13.3763L1.625 17.4192L5.78223 16.334C6.93297 16.9574 8.22113 17.2836 9.52988 17.2832H9.53305C13.8548 17.2832 17.3729 13.782 17.375 9.47848C17.3776 8.45212 17.1761 7.43548 16.7822 6.48772C16.3882 5.53996 15.8097 4.68001 15.0804 3.9579ZM9.53305 15.9659H9.53023C8.36353 15.9662 7.21804 15.654 6.21289 15.0616L5.97488 14.921L3.50797 15.5651L4.16645 13.1713L4.01141 12.9252C3.35904 11.8924 3.01341 10.6955 3.01473 9.47391C3.01473 5.89747 5.94008 2.98758 9.53551 2.98758C11.2603 2.98451 12.9156 3.66664 14.1375 4.88396C15.3594 6.10127 16.0477 7.75407 16.051 9.47883C16.0496 13.0556 13.1257 15.9659 9.53305 15.9659ZM13.1081 11.1076C12.9123 11.0099 11.9479 10.5381 11.7693 10.4731C11.5907 10.408 11.4589 10.3753 11.3285 10.5708C11.198 10.7663 10.8222 11.2036 10.708 11.3354C10.5937 11.4673 10.4795 11.4817 10.2836 11.384C10.0878 11.2862 9.45605 11.0806 8.70758 10.4161C8.12504 9.89895 7.73199 9.26051 7.61773 9.0654C7.50348 8.87028 7.60543 8.76446 7.70352 8.66743C7.79176 8.57989 7.89934 8.43962 7.99742 8.32571C8.09551 8.2118 8.1282 8.13024 8.19324 8.00016C8.25828 7.87008 8.22594 7.75618 8.17707 7.6588C8.1282 7.56141 7.73621 6.6013 7.57309 6.21071C7.41383 5.83032 7.25246 5.882 7.13223 5.87602C7.01797 5.8704 6.88613 5.86899 6.75641 5.86899C6.65723 5.87157 6.55966 5.89457 6.46977 5.93655C6.37989 5.97853 6.29962 6.03859 6.23398 6.11298C6.05434 6.30844 5.54809 6.78094 5.54809 7.74001C5.54809 8.69907 6.25121 9.62719 6.34824 9.75727C6.44527 9.88735 7.72988 11.8572 9.69547 12.702C10.0605 12.8583 10.4334 12.9953 10.8127 13.1126C11.2821 13.2609 11.7092 13.2402 12.0467 13.1899C12.4232 13.134 13.2069 12.7181 13.3696 12.2625C13.5324 11.8069 13.5328 11.4166 13.4839 11.3354C13.435 11.2542 13.3043 11.205 13.1081 11.1076Z" fill="#D6D6D6" stroke="#D6D6D6" stroke-width="0.0351562"/>
</svg>
